<svg width="48" height="36" viewBox="0 0 48 36" fill="none" xmlns="http://www.w3.org/2000/svg">
<path d="M19.0034 11.7837L15.2314 7.95898C12.6875 10.5273 11.111 14.0804 11.111 18.0006C11.111 21.9212 12.6907 25.466 15.2314 28.0462L19.0034 24.2163C18.047 23.2446 17.3095 22.0453 16.8792 20.7084H31.1219C30.6917 22.0453 29.9541 23.2446 28.9946 24.2163L32.7697 28.0462C35.3156 25.466 36.8866 21.9212 36.8866 18.0006C36.8866 14.0804 35.3156 10.5273 32.7697 7.95898L28.9946 11.7837C29.9541 12.755 30.6917 13.9567 31.1219 15.2931H16.8792C17.3095 13.9567 18.047 12.755 19.0034 11.7837Z" fill="white"/>
<path d="M36.8477 3.82626C40.4372 7.45826 42.6538 12.4719 42.6538 18.0006C42.6538 23.5293 40.4372 28.5449 36.8477 32.167L40.622 36C45.1813 31.386 48 25.0204 48 18.0006C48 10.9796 45.1813 4.61522 40.622 0L36.8477 3.82626ZM11.1492 3.82626L7.37447 0C2.82185 4.61522 0 10.9796 0 18.0006C0 25.0204 2.82185 31.386 7.37447 36L11.1559 32.1737C7.5663 28.5449 5.34617 23.5293 5.34617 18.0006C5.34617 12.4735 7.5663 7.45826 11.1492 3.82626Z" fill="white"/>
</svg>
